<svg xmlns="http://www.w3.org/2000/svg" width="1000" height="500">
  <path fill="#FB6D19" d="M154.039 108.708c6.67 4.524 11.885 10.516 13.523 18.574.248 2.134.375 4.28.477 6.426l3.062.625c5.927 1.728 10.224 5.688 13.375 10.937 2.726 6.148 2.667 13.419.903 19.84-2.528 5.7-6.946 9.976-12.553 12.655-3.225 1.091-5.852 1.217-9.255 1.249l-3.905.049-4.201.016-4.346.027c-3.036.017-6.071.024-9.106.027-3.866.006-7.731.043-11.596.089-2.993.03-5.986.037-8.98.038-1.424.004-2.847.017-4.271.038-9.649.131-17.616-.631-25.026-7.299-5.743-5.985-7.269-12.141-7.539-20.291.141-5.975.965-10.138 4.438-15l2.25-3.188c4.87-4.98 10.317-8.754 17.437-8.875l3.313.063.125-2c2.082-7.139 7.528-12.396 13.875-16 8.879-4.336 19.653-2.758 28 2Z" style="stroke-width:1px"/>
  <path fill="#3CB867" d="m257.039 63.708 2.047.996c6.394 3.473 10.573 8.618 12.765 15.586.482 2.122.847 4.269 1.188 6.418l2.437.125c6.586 1.617 11.911 5.208 15.625 10.937 3.193 6.609 3.236 13.882 1.016 20.817-3.744 8.156-8.66 11.973-17.078 15.121-3.37.394-3.37.394-6.91.42l-1.974.025c-2.131.024-4.262.025-6.393.024-4.622.032-9.243.043-13.864.032-3.99-.006-7.978.025-11.966.065-3.086.026-6.172.029-9.258.025-1.47.002-2.94.011-4.41.029-8.114.088-14.927.106-21.225-5.62-2.059-2.133-2.059-2.133-3.438-4.125l-1.433-2.008c-3.257-5.386-2.741-11.808-2.129-17.867 1.864-5.734 5.067-9.761 10.094-13.035 2.038-1.032 4.028-1.639 6.218-2.278 2.032-.614 2.032-.614 3.688-1.687 1.26-3.389 1.26-3.389 1.601-5.82 1.411-7.715 6.166-12.776 12.399-17.18 9.077-5.929 21.48-6.112 31-1Z" style="stroke-width:1px"/>
  <path fill="#388CE6" d="M100.992 200.552c7.156 3.248 12.508 8.606 15.984 15.656 1.251 4.119 1.288 7.22 1.063 11.5l2.062.125c4.975 1.482 8.58 4.838 11.438 9.125 1.038 5.712.389 10.905-2.125 16.125-4.318 4.772-9.456 7.387-15.915 7.779l-2.896.039-3.299.048c-4.981.046-9.962.086-14.943.11-2.621.015-5.241.044-7.862.082-3.791.054-7.582.076-11.374.091l-3.518.069c-8.339-.021-15.265-1.571-21.509-7.407-5.41-5.849-6.537-11.334-6.364-19.185.667-6.565 3.461-10.474 8.242-14.875 3.479-2.819 6.408-4.965 11.004-5.242 2.124-.133 4.011-.295 6.059-.883 2.218-2.743 2.218-2.743 4-6 8.738-8.168 18.284-10.49 29.953-7.156v-.001Z" style="stroke-width:1px"/>
  <path fill="#152C47" d="M752.414 308.816c4.769 4.029 10.167 8.803 11.625 15.029.022 2.3.024 4.599 0 6.898-15.532 1.215-15.532 1.215-18.996-1.652-1.129-2.105-1.129-2.105-2.074-4.28-.882-2.288-.882-2.288-3.93-3.923-5.79-1.918-13.34-2.293-19.102-.235-2.928 1.799-5.038 3.838-5.898 7.133-.078 3.49-.078 3.49 1 6.899 3.374 3.177 6.418 4.662 10.875 5.913l3.445.989c3.156.842 6.321 1.632 9.493 2.41 6.711 1.667 12.441 3.618 18.187 7.441l2.812 1.848c5.254 5.029 7.301 10.885 7.5 17.985-.096 7.939-2.827 15.102-8.339 20.966-11.682 9.346-25.558 9.55-39.836 8.207-7.957-1.476-14.831-5.58-20.137-11.557l-2.063-2.094c-3.602-5.269-5.937-11.253-5.937-17.616h20l3 8.87c3.84 3.884 7.845 5.697 13.305 6.244 9.605.185 9.605.185 17.695-4.273 2.17-3.532 2.517-6.763 2-10.841-2.514-4.955-6.419-6.191-11.469-7.856-3.513-1.008-7.039-1.91-10.587-2.79-11.696-2.913-21.93-5.502-28.944-15.962-2.785-6.325-3.236-13.731-1.195-20.349 3.413-7.539 9.264-13.599 16.945-17.038 13.597-4.381 28.021-2.805 40.625 3.634Z" style="stroke-width:1px"/>
  <path d="M371.039 302.708h19c3.369 8.136 6.221 16.403 8.984 24.758l1.396 4.194c1.212 3.646 2.421 7.292 3.629 10.939 1.238 3.735 2.48 7.469 3.721 11.203 2.427 7.301 4.85 14.603 7.27 21.906 1.88-3.47 3.096-7.047 4.338-10.788l.681-2.04c.739-2.218 1.473-4.437 2.207-6.656l1.539-4.623c1.347-4.05 2.691-8.101 4.034-12.153 1.372-4.136 2.748-8.272 4.123-12.408 2.696-8.109 5.388-16.221 8.078-24.332h20c-6.002 17.615-12.027 35.216-18.332 52.726a1337.667 1337.667 0 0 0-7.136 20.338 2992.16 2992.16 0 0 0-3.31 9.7l-1.191 3.487-1.045 3.078c-.986 2.672-.986 2.672-2.986 6.672h-22c-5.559-14.538-10.675-29.226-15.797-43.922-1.397-4.006-2.796-8.011-4.195-12.017-1.122-3.212-2.244-6.424-3.363-9.637a1729.524 1729.524 0 0 0-5.637-15.983l-.869-2.423a854.219 854.219 0 0 0-1.541-4.241c-.991-2.758-1.598-4.816-1.598-7.777v-.001Z" style="stroke-width:1px;fill:#162e4a"/>
  <path fill="#152C47" d="M768.039 327.708h20l1.545 4.574c1.884 5.579 3.772 11.157 5.663 16.733a12715.332 12715.332 0 0 0 5.975 17.659l1.112 3.298 1.031 3.033.908 2.685c.595 1.984.595 1.984 1.766 3.019l.601-1.847c2.058-6.327 4.118-12.653 6.18-18.978l2.307-7.089 3.314-10.172 1.045-3.217.971-2.972.854-2.624c.728-2.101.728-2.101 1.728-4.101h19c-1.984 5.952-4.002 11.867-6.152 17.758l-.898 2.466a6757.222 6757.222 0 0 1-3.888 10.632c-4.246 11.584-8.516 23.159-12.934 34.679-.495 1.292-.988 2.584-1.478 3.878-9.324 24.542-9.324 24.542-20.783 29.825-3.996 1.63-7.128 1.896-11.43 1.887l-3.504.008c-2.933-.133-2.933-.133-4.933-1.133v-15l4.125.25c4.727-.008 7.259-1.065 10.875-4.25 2.54-2.95 3.02-4.367 2.894-8.274-.963-6.655-3.731-12.865-6.144-19.101a3107.019 3107.019 0 0 0-5.854-15.3c-2.134-5.538-4.262-11.079-6.387-16.621-1.16-3.022-2.325-6.042-3.494-9.062-.532-1.377-1.062-2.756-1.593-4.135l-1.419-3.668c-1.003-2.84-1.003-2.84-1.003-4.84Z" style="stroke-width:1px"/>
  <path fill="#172F4A" d="M532.039 327.708h18l.06 4.42a5496.6 5496.6 0 0 0 .257 16.24c.039 2.343.073 4.685.105 7.028.045 3.368.103 6.736.164 10.105l.035 3.171.06 2.971.04 2.604c.32 2.823.997 4.928 2.279 7.462 3.422 2.282 4.841 2.297 8.875 2.312l3.117.051c3.517-.425 5.25-1.143 8.008-3.363 3.603-5.447 3.471-10.561 3.512-16.867l.054-3.136c.054-3.291.088-6.581.121-9.872.034-2.237.068-4.474.104-6.711.085-5.471.152-10.943.209-16.414h19v71h-17l-1-7-1.18 1.207c-6.258 5.925-12.85 7.86-21.383 8.23-6.292-.213-11.419-1.829-16.222-5.98-7.185-7.714-7.645-15.968-7.508-26.051l.013-3.598c.016-3.769.054-7.539.092-11.308.015-2.565.029-5.13.041-7.695.033-6.269.085-12.537.147-18.805v-.001Z" style="stroke-width:1px"/>
  <path fill="#152D48" d="M899.664 328.583c5.206 3.073 8.052 7.64 10.375 13.125.843 3.504 1.122 6.742 1.113 10.341v3.154l-.015 3.369-.005 3.476c-.005 3.658-.018 7.316-.031 10.973l-.013 7.448c-.011 6.079-.029 12.16-.049 18.239h-18l-.06-4.295c-.078-5.276-.164-10.552-.258-15.828-.039-2.281-.073-4.561-.104-6.841-.048-3.284-.103-6.568-.164-9.852l-.035-3.073c-.111-5.359-.351-10.111-2.379-15.111-3.16-1.053-5.555-1.2-8.875-1.25l-3.117-.078c-3.456.378-5.258 1.233-8.008 3.328-3.698 7.132-4.167 13.603-4.318 21.457l-.062 2.736c-.065 2.873-.125 5.746-.183 8.619l-.13 5.858c-.108 4.776-.207 9.553-.307 14.33h-18v-71h18l1 8 2.062-2.813c6.57-8.958 22.378-8.243 31.563-4.312Z" style="stroke-width:1px"/>
  <path fill="#152B46" d="M970.965 329.384c6.439 4.111 11.826 8.78 14.074 16.324.094 2.742.094 2.742 0 5-2.752.162-5.495.281-8.25.375l-2.356.153c-2.275.058-4.186.035-6.394-.528-2.406-2.906-2.406-2.906-4-6-3.493-2.911-6.463-3.482-11.012-3.285-4.419.633-7.216 2.47-10.238 5.66-3.375 5.063-4.112 9.417-4.063 15.438l.017 2.157c.139 5.974.47 11.046 4.761 15.577 4.519 3.934 7.417 4.762 13.218 4.66 3.44-.308 5.516-1.187 8.317-3.207l4-7h17c-1.312 8.395-4.253 13.354-10.313 19.25-9.173 5.973-17.831 7.611-28.687 6.75-9.257-2.014-17.501-6.896-22.875-14.812-5.95-10.849-7.169-23.681-4.281-35.699 3.873-10.219 10.549-17.895 20.543-22.454 9.484-2.717 21.575-2.817 30.539 1.641Z" style="stroke-width:1px"/>
  <path fill="#152C47" d="M648.039 302.708h18v16.715h17v16.715h-17c.074 5.791.157 11.58.262 17.372.034 1.969.062 3.939.084 5.908.034 2.833.086 5.665.142 8.497l.02 2.663c.088 3.668.263 6.339 1.893 9.569 2.025 2.127 3.22 2.328 5.974 2.516l2.273.192c2.45.09 4.901.087 7.352.087v15.6c-8.969 1.999-18.97 2.964-27.27-2.016-5.037-3.864-7.136-9.407-8.73-15.813-.37-3.553-.353-7.049-.293-10.621l.013-2.961c.016-3.088.054-6.174.092-9.263.015-2.106.029-4.214.041-6.321.033-5.136.085-10.272.147-15.409h-13v-16.715h13v-16.715Z" style="stroke-width:1px"/>
  <path fill="#162F4A" d="M609.039 302.708h17v96h-17v-96Z" style="stroke-width:1px"/>
  <path fill="#222C42" d="M847.039 327.708h17v9h-1v-7h-14v68h15l-.032-3.7c-.036-4.533-.059-9.065-.078-13.598-.01-1.961-.024-3.922-.041-5.883-.024-2.82-.036-5.64-.044-8.459l-.032-2.655v-2.486l-.014-2.181c.241-2.037.241-2.037 2.241-6.037l-1 46h-18v-71.001Z" style="stroke-width:1px"/>
  <path fill="#26B255" d="M237.039 61.708v2l-12 3c4.017-4.017 6.308-5.316 12-5Z" style="stroke-width:1px"/>
  <path fill="#FA6111" d="M92.039 132.708h2c-.349 3.255-1.021 4.019-3.563 6.25l-2.437 1.75c1.124-2.972 2.223-5.335 4-8Z" style="stroke-width:1px"/>
  <path fill="#0066da" d="m318.859 167.668 3.871 6.731c.804 1.417 1.961 2.531 3.318 3.34l13.825-24.091h-27.65c0 1.569.402 3.138 1.207 4.555l5.429 9.465Z" style="stroke-width:1px"/>
  <path fill="#00ac47" d="m356.112 125.306-13.826-24.091c-1.357.81-2.513 1.923-3.318 3.34l-25.538 44.538a9.203 9.203 0 0 0-1.207 4.555h27.65l16.239-28.342Z" style="stroke-width:1px"/>
  <path fill="#ea4335" d="M386.175 177.739c1.357-.809 2.514-1.923 3.318-3.34l1.609-2.784 7.691-13.412a9.219 9.219 0 0 0 1.207-4.555h-27.652l5.884 11.642 7.943 12.449Z" style="stroke-width:1px"/>
  <path fill="#00832d" d="m356.112 125.306 13.825-24.091c-1.358-.81-2.916-1.215-4.525-1.215h-18.601c-1.609 0-3.167.456-4.525 1.215l13.826 24.091Z" style="stroke-width:1px"/>
  <path fill="#2684fc" d="M372.35 153.648h-32.477l-13.825 24.091c1.358.81 2.916 1.215 4.525 1.215h51.077c1.609 0 3.167-.455 4.525-1.215l-13.825-24.091Z" style="stroke-width:1px"/>
  <path fill="#ffba00" d="m386.024 126.824-12.769-22.269c-.805-1.417-1.961-2.53-3.318-3.34l-13.825 24.091 16.238 28.342h27.6a9.221 9.221 0 0 0-1.207-4.555l-12.719-22.269Z" style="stroke-width:1px"/>
  <path d="M11.478 21.367 16 17.601l-6.531-4.034L5 17.15zM16 17.6l4.535 3.767L27 17.15l-4.469-3.583z" style="fill:#388ce6" transform="matrix(3.14507 0 0 3.04419 356.623 181.484)"/>
  <path d="M16.027 18.42v-.027l-.013.013-.014-.013v.027l-4.522 3.754-1.943-1.268v1.426L16 26.207v.012l.014-.012.013.012v-.012l6.477-3.875v-1.426l-1.942 1.268zM5 9.998l4.469 3.569L16 9.548l-4.522-3.767zm15.535-4.217L16 9.548l6.531 4.019L27 9.998z" style="fill:#388ce6" transform="matrix(3.14507 0 0 3.04419 356.623 181.484)"/>
  <path d="M500.426 329.682h9.794l-5.934 33.855c-1.153 6.434-1.94 10.383-2.362 11.846 1.536 8.969 3.764 13.454 6.683 13.454 3.457 0 5.243-3.023 5.358-9.068h2.074c-.109 5.655-.935 10.238-2.477 13.748-1.498 3.461-3.476 5.191-5.934 5.191-2.036 0-3.553-1.048-4.552-3.144-.998-2.097-2.073-6.386-3.226-12.87-3.995 10.676-10.524 16.014-19.589 16.014-6.184 0-11.1-3.047-14.749-9.14-3.649-6.143-5.473-14.916-5.473-26.323 0-11.212 1.997-19.938 5.992-26.178 3.994-6.238 8.795-9.359 14.403-9.359 3.956 0 7.202 1.779 9.737 5.338s4.782 9.359 6.741 17.403l3.514-20.767Zm-5.07 28.663c-1.805-7.848-3.822-13.966-6.05-18.353-2.227-4.437-4.897-6.654-8.008-6.654-7.029 0-10.543 10.432-10.543 31.295 0 19.791 3.361 29.687 10.082 29.687 5.838 0 10.159-8.725 12.963-26.176l1.556-9.799Z" style="stroke-width:1px;fill:#162e4a"/>
  <path d="M259.02 155.057c-1.799-.923-3.728-1.409-5.742-1.409s-3.941.486-5.741 1.409l-80.681 38.835c-9.427 4.521-16.453 15.068-16.41 27.804.214 48.216 17.695 136.435 91.521 176.534 7.155 3.888 15.468 3.888 22.624 0 73.825-40.099 91.307-128.318 91.521-176.534.042-12.736-6.985-23.283-16.411-27.804l-80.681-38.835Zm-46.874 73.638c0-2.82 2.014-5.055 4.455-5.055h.086c1.457 0 2.785.778 3.642 2.09l17.139 25.907c1.286 1.943 3.342 3.111 5.484 3.111h20.567c2.142 0 4.2-1.168 5.485-3.111l17.138-25.907c.857-1.312 2.228-2.09 3.643-2.09h.086c2.484 0 4.455 2.284 4.455 5.055l.086 57.16c0 25.76-18.425 46.66-41.134 46.66s-41.132-20.9-41.132-46.66v-57.16Zm23.994 64.936c3.786 0 6.855-3.482 6.855-7.776 0-4.295-3.069-7.777-6.855-7.777-3.786 0-6.856 3.482-6.856 7.777 0 4.294 3.07 7.776 6.856 7.776Zm41.133-7.776c0-4.295-3.069-7.777-6.855-7.777-3.786 0-6.856 3.482-6.856 7.777 0 4.294 3.07 7.776 6.856 7.776s6.855-3.482 6.855-7.776Z" style="stroke-width:1px;fill:#162e4a"/>
</svg>
