<svg xmlns="http://www.w3.org/2000/svg" viewBox="0 0 500 500">
  <path fill="#FB6D19" d="M154.039 108.708c6.67 4.524 11.885 10.516 13.523 18.574.248 2.134.375 4.28.477 6.426l3.062.625c5.927 1.728 10.224 5.688 13.375 10.937 2.726 6.148 2.667 13.419.903 19.84-2.528 5.7-6.946 9.976-12.553 12.655-3.225 1.091-5.852 1.217-9.255 1.249l-3.905.049-4.201.016-4.346.027c-3.036.017-6.071.024-9.106.027-3.866.006-7.731.043-11.596.089-2.993.03-5.986.037-8.98.038-1.424.004-2.847.017-4.271.038-9.649.131-17.616-.631-25.026-7.299-5.743-5.985-7.269-12.141-7.539-20.291.141-5.975.965-10.138 4.438-15l2.25-3.188c4.87-4.98 10.317-8.754 17.437-8.875l3.313.063.125-2c2.082-7.139 7.528-12.396 13.875-16 8.879-4.336 19.653-2.758 28 2Z" style="stroke-width:1px"/>
  <path fill="#3CB867" d="m257.039 63.708 2.047.996c6.394 3.473 10.573 8.618 12.765 15.586.482 2.122.847 4.269 1.188 6.418l2.437.125c6.586 1.617 11.911 5.208 15.625 10.937 3.193 6.609 3.236 13.882 1.016 20.817-3.744 8.156-8.66 11.973-17.078 15.121-3.37.394-3.37.394-6.91.42l-1.974.025c-2.131.024-4.262.025-6.393.024-4.622.032-9.243.043-13.864.032-3.99-.006-7.978.025-11.966.065-3.086.026-6.172.029-9.258.025-1.47.002-2.94.011-4.41.029-8.114.088-14.927.106-21.225-5.62-2.059-2.133-2.059-2.133-3.438-4.125l-1.433-2.008c-3.257-5.386-2.741-11.808-2.129-17.867 1.864-5.734 5.067-9.761 10.094-13.035 2.038-1.032 4.028-1.639 6.218-2.278 2.032-.614 2.032-.614 3.688-1.687 1.26-3.389 1.26-3.389 1.601-5.82 1.411-7.715 6.166-12.776 12.399-17.18 9.077-5.929 21.48-6.112 31-1Z" style="stroke-width:1px"/>
  <path fill="#388CE6" d="M100.992 200.552c7.156 3.248 12.508 8.606 15.984 15.656 1.251 4.119 1.288 7.22 1.063 11.5l2.062.125c4.975 1.482 8.58 4.838 11.438 9.125 1.038 5.712.389 10.905-2.125 16.125-4.318 4.772-9.456 7.387-15.915 7.779l-2.896.039-3.299.048c-4.981.046-9.962.086-14.943.11-2.621.015-5.241.044-7.862.082-3.791.054-7.582.076-11.374.091l-3.518.069c-8.339-.021-15.265-1.571-21.509-7.407-5.41-5.849-6.537-11.334-6.364-19.185.667-6.565 3.461-10.474 8.242-14.875 3.479-2.819 6.408-4.965 11.004-5.242 2.124-.133 4.011-.295 6.059-.883 2.218-2.743 2.218-2.743 4-6 8.738-8.168 18.284-10.49 29.953-7.156v-.001Z" style="stroke-width:1px"/>
  <path fill="#26B255" d="M237.039 61.708v2l-12 3c4.017-4.017 6.308-5.316 12-5Z" style="stroke-width:1px"/>
  <path fill="#FA6111" d="M92.039 132.708h2c-.349 3.255-1.021 4.019-3.563 6.25l-2.437 1.75c1.124-2.972 2.223-5.335 4-8Z" style="stroke-width:1px"/>
  <path fill="#0066da" d="m318.859 167.668 3.871 6.731c.804 1.417 1.961 2.531 3.318 3.34l13.825-24.091h-27.65c0 1.569.402 3.138 1.207 4.555l5.429 9.465Z" style="stroke-width:1px"/>
  <path fill="#00ac47" d="m356.112 125.306-13.826-24.091c-1.357.81-2.513 1.923-3.318 3.34l-25.538 44.538a9.2 9.2 0 0 0-1.207 4.555h27.65l16.239-28.342Z" style="stroke-width:1px"/>
  <path fill="#ea4335" d="M386.175 177.739c1.357-.809 2.514-1.923 3.318-3.34l1.609-2.784 7.691-13.412a9.221 9.221 0 0 0 1.207-4.555h-27.652l5.884 11.642 7.943 12.449Z" style="stroke-width:1px"/>
  <path fill="#00832d" d="m356.112 125.306 13.825-24.091c-1.358-.81-2.916-1.215-4.525-1.215h-18.601c-1.609 0-3.167.456-4.525 1.215l13.826 24.091Z" style="stroke-width:1px"/>
  <path fill="#2684fc" d="M372.35 153.648h-32.477l-13.825 24.091c1.358.81 2.916 1.215 4.525 1.215h51.077c1.609 0 3.167-.455 4.525-1.215l-13.825-24.091Z" style="stroke-width:1px"/>
  <path fill="#ffba00" d="m386.024 126.824-12.769-22.269c-.805-1.417-1.961-2.53-3.318-3.34l-13.825 24.091 16.238 28.342h27.6a9.221 9.221 0 0 0-1.207-4.555l-12.719-22.269Z" style="stroke-width:1px"/>
  <path d="m392.722 246.529 14.222-11.464-20.541-12.28-14.055 10.907 20.374 12.837Zm14.222-11.467 14.263 11.467 20.332-12.837-14.055-10.907-20.54 12.277Z" style="fill:#388ce6;stroke-width:3.095px"/>
  <path d="M407.029 237.558v-.082l-.041.039-.044-.039v.082l-14.222 11.428-6.111-3.86v4.341l20.333 11.796v.037l.044-.037.041.037v-.037l20.37-11.796v-4.341l-6.108 3.86-14.262-11.428Zm-34.681-25.638 14.055 10.865 20.541-12.235-14.222-11.468-20.374 12.838Zm48.859-12.838-14.263 11.468 20.54 12.235 14.055-10.865-20.332-12.838Z" style="fill:#388ce6;stroke-width:3.095px"/>
  <path d="M259.02 155.057c-1.799-.923-3.728-1.409-5.742-1.409s-3.941.486-5.741 1.409l-80.681 38.835c-9.427 4.521-16.453 15.068-16.41 27.804.214 48.216 17.695 136.435 91.521 176.534 7.155 3.888 15.468 3.888 22.624 0 73.825-40.099 91.307-128.318 91.521-176.534.042-12.736-6.985-23.283-16.411-27.804l-80.681-38.835Zm-46.874 73.638c0-2.82 2.014-5.055 4.455-5.055h.086c1.457 0 2.785.778 3.642 2.09l17.139 25.907c1.286 1.943 3.342 3.111 5.484 3.111h20.567c2.142 0 4.2-1.168 5.485-3.111l17.138-25.907c.857-1.312 2.228-2.09 3.643-2.09h.086c2.484 0 4.455 2.284 4.455 5.055l.086 57.16c0 25.76-18.425 46.66-41.134 46.66s-41.132-20.9-41.132-46.66v-57.16Zm23.994 64.936c3.786 0 6.855-3.482 6.855-7.776 0-4.295-3.069-7.777-6.855-7.777-3.786 0-6.856 3.482-6.856 7.777 0 4.294 3.07 7.776 6.856 7.776Zm41.133-7.776c0-4.295-3.069-7.777-6.855-7.777-3.786 0-6.856 3.482-6.856 7.777 0 4.294 3.07 7.776 6.856 7.776s6.855-3.482 6.855-7.776Z" style="stroke-width:1px;fill:#162e4a"/>
</svg>
